<?xml version="1.0" standalone="no"?>
<!DOCTYPE svg PUBLIC "-//W3C//DTD SVG 20010904//EN"
 "http://www.w3.org/TR/2001/REC-SVG-20010904/DTD/svg10.dtd">
<svg version="1.0" xmlns="http://www.w3.org/2000/svg"
 width="16.000000pt" height="16.000000pt" viewBox="0 0 16.000000 16.000000"
 preserveAspectRatio="xMidYMid meet">
<metadata>
Created by potrace 1.11, written by Peter Selinger 2001-2013
</metadata>
<g transform="translate(0.000000,16.000000) scale(0.002847,-0.002847)"
fill="#000000" stroke="none">
<path d="M2415 5587 c-29 -15 -37 -33 -41 -95 -3 -32 -6 -64 -8 -72 -1 -8 -6
-32 -11 -52 -4 -21 -11 -38 -16 -38 -5 0 -8 -3 -7 -7 3 -13 -13 -53 -21 -53
-4 0 -13 -11 -19 -24 l-11 -24 -58 28 c-112 53 -166 64 -323 65 -130 0 -150
-2 -194 -23 -77 -35 -112 -67 -140 -127 -19 -39 -39 -63 -74 -87 -82 -56 -205
-164 -273 -240 -62 -69 -71 -75 -140 -96 -68 -20 -204 -32 -225 -20 -5 3 -20
4 -34 3 -14 -1 -31 3 -39 9 -12 9 -13 8 -6 -4 7 -12 4 -12 -17 2 -19 12 -28
14 -37 5 -8 -8 -11 -8 -11 1 0 7 -11 12 -25 12 -14 0 -25 4 -25 10 0 5 -6 7
-14 4 -8 -3 -17 0 -21 5 -3 6 -10 9 -15 6 -5 -3 -11 -1 -15 5 -3 5 -17 10 -30
10 -19 0 -23 -5 -20 -25 1 -14 -2 -28 -7 -31 -5 -3 -4 -11 2 -19 6 -7 12 -27
13 -44 1 -17 5 -31 10 -31 4 0 7 -7 7 -15 0 -14 25 -61 40 -75 3 -3 6 -12 8
-20 2 -8 10 -22 18 -31 8 -8 14 -21 14 -27 0 -7 4 -12 9 -12 13 0 0 -53 -18
-71 -9 -8 -25 -27 -35 -42 -11 -14 -24 -23 -29 -20 -18 11 -76 -8 -82 -28 -7
-21 11 -52 25 -44 4 3 10 -1 13 -8 3 -7 20 -12 41 -12 20 1 36 -2 36 -7 0 -5
5 -6 10 -3 6 4 17 2 24 -4 7 -6 25 -12 40 -13 14 -1 26 -6 26 -10 0 -4 10 -8
23 -8 13 0 27 -4 33 -10 5 -5 19 -11 31 -13 13 -2 26 -6 29 -10 4 -4 16 -7 26
-7 10 0 18 -4 18 -9 0 -6 9 -8 20 -6 11 2 26 -2 33 -8 7 -7 19 -13 27 -15 8
-1 24 -7 35 -11 54 -24 103 -39 109 -34 3 4 6 1 6 -5 0 -7 8 -12 18 -12 10 0
23 -5 30 -12 7 -7 12 -8 12 -3 0 4 12 -5 26 -21 15 -16 23 -22 19 -14 -6 12
-5 13 6 3 7 -7 21 -13 31 -13 10 0 18 -4 18 -10 0 -5 6 -10 14 -10 7 0 21 -10
30 -22 9 -13 14 -17 10 -10 -5 11 -2 11 15 0 12 -7 21 -16 21 -20 0 -5 4 -8
10 -8 15 0 144 -63 152 -75 4 -5 8 -6 8 -1 0 5 6 3 13 -3 8 -6 17 -8 20 -4 4
3 7 2 7 -3 0 -5 8 -10 18 -11 33 -3 47 -8 59 -23 10 -12 12 -12 13 -1 0 11 5
10 25 -3 13 -9 33 -16 45 -16 11 0 20 -4 20 -8 0 -4 9 -8 20 -9 11 -1 29 -11
42 -22 12 -12 28 -21 35 -21 7 0 13 -6 13 -14 0 -7 7 -19 16 -27 20 -16 71
-117 91 -178 27 -84 79 -793 77 -1056 -2 -320 -66 -569 -191 -735 -44 -59 -88
-102 -168 -166 -27 -21 -58 -47 -67 -56 -10 -10 -20 -18 -23 -18 -13 1 -158
-122 -230 -196 -105 -106 -181 -242 -190 -334 0 -9 -4 -20 -7 -25 -7 -13 -4
-204 5 -235 22 -82 51 -160 58 -160 5 0 9 -5 9 -11 0 -20 41 -99 51 -99 6 0 7
-5 4 -10 -3 -6 1 -13 9 -16 9 -3 16 -10 16 -16 0 -5 13 -23 30 -41 16 -17 35
-44 41 -59 6 -15 15 -26 19 -23 4 2 20 -9 35 -25 15 -16 32 -27 36 -24 5 3 6
-3 2 -13 -3 -10 -2 -15 2 -10 5 4 17 0 27 -10 10 -9 18 -13 18 -9 0 4 7 0 15
-8 82 -82 920 -134 1660 -103 337 14 397 16 587 22 103 3 197 8 210 10 12 3
40 7 63 11 46 7 69 12 73 14 2 3 5 3 47 14 46 12 105 39 105 48 0 4 3 7 8 5 4
-1 32 16 61 38 30 22 68 50 85 63 17 12 29 23 26 25 -2 1 7 14 20 28 38 39 61
69 53 69 -4 0 3 7 15 16 13 9 21 22 18 30 -3 8 1 14 9 14 8 0 15 5 15 10 0 6
16 34 35 63 57 84 134 356 153 540 13 128 7 385 -12 482 -39 207 -123 411
-205 495 -52 55 -79 62 -131 35 -37 -19 -72 -70 -154 -225 -74 -138 -84 -152
-162 -205 -65 -45 -153 -78 -250 -94 -82 -14 -301 -9 -384 9 -30 6 -70 11 -87
12 -21 0 -30 4 -26 11 3 6 1 7 -5 3 -18 -11 -104 35 -144 76 -24 25 -38 52
-42 76 -3 20 -12 84 -21 142 -9 58 -25 155 -35 215 -11 61 -27 160 -35 220
-19 142 -43 303 -56 385 -24 156 -29 190 -39 270 -5 47 -17 135 -25 195 -9 61
-20 209 -25 330 -5 121 -14 306 -20 410 -7 128 -7 201 0 225 5 19 10 84 10
145 -1 171 -43 333 -130 492 -58 104 -60 137 -18 220 32 61 35 75 32 137 -3
73 5 99 50 151 67 78 35 136 -104 188 -67 24 -122 28 -143 9 -16 -14 -17 -12
-11 31 6 38 3 49 -16 69 -13 12 -20 18 -16 11 4 -7 -5 -6 -25 4 -38 19 -109
25 -134 10z m187 -221 c7 4 8 2 4 -5 -4 -6 -1 -23 8 -36 23 -35 20 -53 -21
-112 -29 -42 -39 -50 -45 -38 -11 18 -3 117 12 165 21 63 23 67 27 42 3 -13 9
-19 15 -16z"/>
</g>
</svg>
